<?xml version="1.0" standalone="no"?>
<!DOCTYPE svg PUBLIC "-//W3C//DTD SVG 20010904//EN"
 "http://www.w3.org/TR/2001/REC-SVG-20010904/DTD/svg10.dtd">
<svg version="1.0" xmlns="http://www.w3.org/2000/svg"
 width="271.000000pt" height="271.000000pt" viewBox="0 0 271.000000 271.000000"
 preserveAspectRatio="xMidYMid meet">
<metadata>
Created by potrace 1.14, written by Peter Selinger 2001-2017
</metadata>
<g transform="translate(0.000000,271.000000) scale(0.100000,-0.100000)"
fill="#000000" stroke="none">
<path d="M885 2701 c-3 -6 1 -30 9 -54 26 -78 28 -74 -188 -519 -144 -298
-228 -473 -281 -583 -29 -60 -96 -200 -150 -310 -112 -231 -130 -273 -121
-282 12 -12 665 -9 712 3 62 16 123 61 153 116 26 48 41 60 41 35 0 -24 58
-96 98 -121 21 -13 53 -27 72 -31 43 -10 564 -13 590 -3 17 6 18 10 4 55 -9
26 -13 64 -10 84 3 20 37 101 75 180 37 79 90 189 116 244 26 55 71 150 100
210 29 61 66 139 83 175 17 36 69 145 116 243 47 99 86 180 86 182 0 1 39 82
86 180 47 98 83 184 80 191 -7 19 -472 21 -479 2 -2 -7 2 -28 10 -46 8 -19 13
-53 11 -75 l-3 -42 -22 41 c-23 44 -65 83 -117 112 -28 15 -82 17 -548 20
-344 2 -518 -1 -523 -7z m447 -82 c13 -33 2 -83 -34 -159 -17 -36 -50 -105
-73 -155 -24 -49 -71 -148 -105 -220 -34 -71 -79 -166 -100 -210 -21 -44 -70
-147 -109 -229 -39 -81 -71 -150 -71 -151 0 -18 -198 -407 -218 -428 -39 -41
-107 -56 -249 -55 -68 0 -123 4 -123 8 0 4 46 102 101 216 56 115 123 254 149
309 26 55 78 163 115 240 37 77 98 203 135 280 37 77 100 207 139 288 76 155
84 179 83 237 -1 19 1 40 2 45 2 6 69 10 176 9 l173 -1 9 -24z m363 22 c6 -1
-12 -47 -40 -104 -27 -56 -86 -177 -129 -267 -44 -91 -135 -279 -203 -419 -68
-139 -123 -254 -123 -256 0 -18 -254 -516 -271 -531 -42 -38 -71 -47 -166 -50
l-94 -3 21 29 c19 26 95 182 205 415 18 39 61 129 95 200 95 199 159 333 197
415 20 41 67 140 105 220 95 197 110 237 110 295 1 28 2 52 3 55 2 4 238 4
290 1z m233 -15 c70 -36 104 -91 105 -165 1 -50 -7 -73 -82 -226 -46 -93 -94
-193 -107 -221 -26 -58 -59 -96 -107 -121 -25 -13 -63 -17 -174 -17 -79 -1
-143 2 -143 6 0 10 101 223 279 590 33 69 61 131 61 137 0 35 111 47 168 17z
m526 15 c13 -1 16 -4 9 -13 -6 -7 -42 -80 -81 -163 -39 -82 -105 -222 -147
-310 -42 -88 -92 -191 -110 -230 -18 -38 -103 -218 -190 -400 -197 -412 -187
-388 -187 -456 l-1 -57 -131 2 -131 1 1 55 c1 49 15 83 128 313 165 338 164
337 131 419 -5 13 3 22 32 36 75 39 80 46 275 451 106 220 115 242 114 301 -1
25 2 47 5 50 6 4 195 5 283 1z m-775 -861 c11 -14 20 -34 21 -46 0 -11 -24
-69 -54 -130 -208 -427 -230 -477 -230 -536 l0 -57 -85 3 c-119 3 -173 33
-208 115 -26 61 -19 114 30 214 25 51 86 176 135 278 l91 186 139 -1 c136 -1
140 -2 161 -26z"/>
<path d="M1537 493 c-11 -10 -9 -16 22 -52 16 -19 34 -31 40 -27 17 11 14 21
-15 55 -26 32 -35 36 -47 24z"/>
<path d="M1188 452 c-16 -3 -18 -20 -18 -173 0 -207 7 -231 71 -247 36 -9 136
-10 277 -3 17 1 22 7 22 29 0 28 -1 28 -47 22 -42 -5 -138 -6 -210 -1 -37 2
-53 28 -53 85 l0 52 47 12 c66 18 253 92 253 100 0 4 -7 15 -15 26 -14 18 -16
18 -71 -8 -47 -22 -196 -76 -210 -76 -2 0 -4 40 -4 89 0 91 -5 102 -42 93z"/>
<path d="M1477 453 c-3 -5 9 -25 27 -46 27 -32 34 -36 44 -25 9 11 6 21 -11
46 -21 30 -50 42 -60 25z"/>
<path d="M1683 418 c-9 -21 -4 -27 71 -75 81 -52 81 -52 101 -32 20 20 20 20
-5 39 -31 23 -120 77 -141 85 -10 4 -19 -2 -26 -17z"/>
<path d="M586 390 c-2 -3 -3 -81 -2 -175 l1 -170 200 -3 200 -2 -2 170 c-1 93
-2 173 -2 178 -1 8 -391 10 -395 2z m338 -162 c-1 -62 -2 -118 -3 -125 -1 -8
-42 -11 -141 -10 l-140 1 1 123 2 123 141 0 141 0 -1 -112z"/>
<path d="M2041 303 c-51 -86 -138 -166 -226 -208 -41 -20 -84 -37 -95 -38 -24
-2 -23 1 -8 -31 14 -32 33 -29 144 25 95 45 176 120 229 211 19 32 35 63 35
68 0 8 -31 30 -42 30 -2 0 -19 -26 -37 -57z"/>
</g>
</svg>
