<?xml version="1.0" standalone="no"?>
<!DOCTYPE svg PUBLIC "-//W3C//DTD SVG 1.1//EN" "http://www.w3.org/Graphics/SVG/1.1/DTD/svg11.dtd" >
<svg>
<metadata>
Created by FontForge 20090622 at Wed Feb 24 13:16:33 2016
 By deploy user
Copyright (c) 1992 Image Club Graphics, Inc.
</metadata>
<defs>
<font id="AvantGardeBook" horiz-adv-x="778" >
  <font-face 
    font-family="Avant Garde"
    font-weight="5"
    font-stretch="normal"
    units-per-em="1100"
    panose-1="0 0 0 0 0 0 0 0 0 0"
    ascent="880"
    descent="-220"
    x-height="647"
    cap-height="874"
    bbox="-68 -282 1370 1129"
    underline-thickness="20"
    underline-position="-128"
    unicode-range="U+0020-U+25CA"
  />
<missing-glyph horiz-adv-x="874" 
d="M54 0v874h766v-874h-766zM766 54v766h-658v-766h658z" />
    <glyph glyph-name=".notdef" horiz-adv-x="874" 
d="M54 0v874h766v-874h-766zM766 54v766h-658v-766h658z" />
    <glyph glyph-name=".null" unicode="&#xd7;" horiz-adv-x="0" 
 />
    <glyph glyph-name=".null" unicode="&#x141;" horiz-adv-x="0" 
 />
    <glyph glyph-name=".null" unicode="&#xfd;" horiz-adv-x="0" 
 />
    <glyph glyph-name="nonmarkingreturn" horiz-adv-x="319" 
 />
    <glyph glyph-name="space" unicode=" " horiz-adv-x="319" 
 />
    <glyph glyph-name="exclam" unicode="!" horiz-adv-x="200" 
d="M142 188h-88v684h88v-684zM142 -2h-88v108h88v-108z" />
    <glyph glyph-name="quotedbl" unicode="&#x22;" horiz-adv-x="297" 
d="M250 607h-64v267h64v-267zM121 607h-63v267h63v-267z" />
    <glyph glyph-name="numbersign" unicode="#" horiz-adv-x="781" 
d="M728 564l-22 -76h-185l-45 -148h186l-22 -76h-185l-79 -262h-51l76 262h-111l-78 -262h-51l77 262h-184l22 74h183l42 150h-183l21 76h185l92 311h51l-89 -311h109l93 311h50l-87 -311h185zM467 488h-112l-46 -148h113z" />
    <glyph glyph-name="dollar" unicode="$" horiz-adv-x="591" 
d="M533 243q0 -95 -55 -156.5t-130 -61.5l-17 -1v-91h-76v91q-26 0 -47 7.5t-48 23.5q-50 31 -78 79.5t-28 99.5v19h82v-15q0 -59 51 -103q48 -41 106 -41q63 0 109.5 45.5t46.5 108.5q0 57 -37 98q-33 36 -94 57l-87 29q-72 24 -112 79t-40 127q0 76 49 134t126 71v102h77
v-102q36 -4 66.5 -18.5t56.5 -38t46 -62.5t20 -61l1 -38h-81l-6 37q-9 49 -48 77t-93 28q-55 0 -92 -40t-37 -95q0 -49 27 -82t77 -48l111 -35q71 -23 114 -91q40 -63 40 -133z" />
    <glyph glyph-name="percent" unicode="%" horiz-adv-x="974" 
d="M463 680q0 -85 -59 -147t-143 -62q-87 0 -148.5 62.5t-61.5 149.5q0 84 62 143t148 59q84 0 143 -60t59 -145zM723 874l-383 -877h-87l385 877h85zM923 191q0 -84 -59.5 -146.5t-142.5 -62.5q-87 0 -148.5 62.5t-61.5 149.5q0 84 62 143t148 59q84 0 143 -60t59 -145z
M378 684q0 48 -35 82t-84 34q-51 0 -87 -34t-36 -83q0 -52 36 -90t87 -38q50 0 84.5 38.5t34.5 90.5zM838 195q0 48 -35 82t-84 34q-51 0 -87 -34t-36 -83q0 -52 36 -90t87 -38q50 0 84.5 38.5t34.5 90.5z" />
    <glyph glyph-name="ampersand" unicode="&#x26;" horiz-adv-x="915" 
d="M857 45l-60 -59l-201 193l-25 -45q-41 -74 -101 -112.5t-141 -38.5q-109 0 -191 80t-82 190q0 36 10.5 71.5t49.5 81.5q46 54 95 84l41 25l-27 29q-34 35 -48.5 70t-14.5 84q0 80 62 135t146 55q83 0 147 -60t64 -145q0 -63 -36 -109q-32 -41 -95 -71l-41 -20l165 -162
l127 248h98l-160 -309zM492 693q0 46 -36.5 78.5t-85.5 32.5q-48 0 -86 -34t-38 -77q0 -26 21 -60q17 -27 37 -45l42 -40l80 40q66 32 66 105zM531 243l-210 203l-66 -35q-53 -28 -80.5 -73t-27.5 -94q0 -71 50.5 -123t125.5 -52q49 0 93.5 25t72.5 74z" />
    <glyph glyph-name="quotesingle" unicode="'" horiz-adv-x="181" 
d="M131 608h-75v267h75v-267z" />
    <glyph glyph-name="parenleft" unicode="(" horiz-adv-x="427" 
d="M380 -170q-162 82 -241 211.5t-79 316.5q0 167 82 303t238 215v-88q-120 -80 -176.5 -184.5t-56.5 -247.5q0 -147 56 -255t177 -191v-80z" />
    <glyph glyph-name="parenright" unicode=")" horiz-adv-x="430" 
d="M376 361q0 -188 -79 -316.5t-242 -211.5v80q122 81 179 188.5t57 254.5q0 145 -56.5 249.5t-178.5 185.5v88q156 -79 238 -215t82 -303z" />
    <glyph glyph-name="asterisk" unicode="*" horiz-adv-x="457" 
d="M405 814h-118l62 -105l-54 -32l-64 105l-60 -105l-57 32l63 103h-122v62h121l-62 106l55 34l62 -108l64 108l54 -34l-62 -106h118v-60z" />
    <glyph glyph-name="plus" unicode="+" horiz-adv-x="699" 
d="M644 255h-248v-257h-87v257h-248v90h248v253h87v-253h248v-90z" />
    <glyph glyph-name="comma" unicode="," horiz-adv-x="293" 
d="M240 146l-98 -229h-88l99 229h87z" />
    <glyph glyph-name="hyphen" unicode="-" horiz-adv-x="431" 
d="M374 346h-318v83h318v-83z" />
    <glyph glyph-name="period" unicode="." horiz-adv-x="200" 
d="M145 -2h-87v150h87v-150z" />
    <glyph glyph-name="slash" unicode="/" horiz-adv-x="520" 
d="M467 874l-333 -1010h-82l335 1010h80z" />
    <glyph glyph-name="zero" unicode="0" horiz-adv-x="699" 
d="M638 264q0 -116 -87.5 -197.5t-207.5 -81.5q-118 0 -201.5 84.5t-83.5 202.5v322q0 120 83.5 208.5t202.5 88.5q120 0 207 -83t87 -201v-343zM552 262v339q0 84 -59.5 144.5t-143.5 60.5q-85 0 -145 -63t-60 -150v-316q0 -85 59.5 -146.5t143.5 -61.5q83 0 144 56t61 137
z" />
    <glyph glyph-name="one" unicode="1" horiz-adv-x="345" 
d="M290 0h-87v797h-148v80h235v-877z" />
    <glyph glyph-name="two" unicode="2" horiz-adv-x="662" 
d="M606 642q1 -12 1.5 -21t0.5 -14q0 -58 -22.5 -105t-69.5 -93l-345 -332h423v-80h-543v81l400 386q28 28 47 66q24 47 24 94q0 74 -55 126t-131 52q-78 0 -135.5 -53.5t-57.5 -130.5v-29h-87v29q0 112 83.5 190.5t197.5 78.5q106 0 182 -70t87 -175z" />
    <glyph glyph-name="three" unicode="3" horiz-adv-x="665" 
d="M611 270q0 -116 -83 -200t-199 -84q-112 0 -192.5 81.5t-80.5 195.5v13h88v-18q0 -77 55 -132t133 -55q80 0 135 58t55 139q0 90 -64 144q-59 49 -147 49h-35v77l33 -2q66 0 109 35q48 39 48 107q0 53 -35.5 90.5t-86.5 37.5q-57 0 -98.5 -39.5t-41.5 -95.5v-13h-88v8
q0 93 65 159t158 66q89 0 152 -65t63 -155q0 -104 -92 -167q72 -37 110.5 -96t38.5 -138z" />
    <glyph glyph-name="four" unicode="4" horiz-adv-x="714" 
d="M663 160h-77v-161h-91v160h-440v80l421 635h109v-634h78v-80zM495 240v511l-337 -511h337z" />
    <glyph glyph-name="five" unicode="5" horiz-adv-x="710" 
d="M653 296q0 -125 -80.5 -218.5t-198.5 -93.5q-128 0 -222 84.5t-94 208.5h86q0 -81 62.5 -144.5t148.5 -63.5q88 0 148.5 65.5t60.5 156.5q0 90 -63.5 155.5t-154.5 65.5q-53 0 -104 -30q-43 -25 -68 -62l-70 25l79 432h395v-80h-325l-44 -243q37 23 73 33t81 10
q121 0 205.5 -88.5t84.5 -212.5z" />
    <glyph glyph-name="six" unicode="6" horiz-adv-x="691" 
d="M640 304q0 -126 -87.5 -220.5t-209.5 -94.5q-129 0 -211 93q-77 88 -77 216q0 57 19 107.5t59 112.5l232 356h100l-199 -300q29 14 49 19.5t49 5.5q109 0 192.5 -88.5t83.5 -206.5zM553 297q0 88 -59.5 153.5t-145.5 65.5t-147 -64t-61 -150q0 -92 59.5 -160.5
t146.5 -68.5q88 0 147.5 66.5t59.5 157.5z" />
    <glyph glyph-name="seven" unicode="7" horiz-adv-x="613" 
d="M555 791l-361 -792h-94l362 792h-410v81h503v-81z" />
    <glyph glyph-name="eight" unicode="8" horiz-adv-x="665" 
d="M610 259q0 -115 -88 -194t-207 -79q-108 0 -184 80t-76 189q0 75 38 137t108 98q-97 65 -97 180q0 92 69 156t163 64q93 0 160.5 -67.5t67.5 -159.5q0 -73 -25 -111q-18 -27 -76 -64q71 -36 109 -95.5t38 -133.5zM479 669q0 57 -41.5 96.5t-98.5 39.5q-61 0 -105.5 -39.5
t-44.5 -97.5q0 -59 43 -101t102 -42t102 42t43 102zM521 259q0 76 -57.5 129.5t-135.5 53.5q-77 0 -131 -55t-54 -133q0 -76 53.5 -130.5t129.5 -54.5q80 0 137.5 55.5t57.5 134.5z" />
    <glyph glyph-name="nine" unicode="9" horiz-adv-x="706" 
d="M646 568q0 -59 -18 -108.5t-59 -111.5l-233 -349h-100l199 293q-27 -12 -49.5 -18.5t-47.5 -6.5q-110 0 -193.5 88.5t-83.5 206.5q0 127 88 221t210 94q128 0 210 -93q77 -88 77 -216zM561 565q0 92 -59 160t-147 68q-87 0 -146.5 -66.5t-59.5 -156.5q0 -88 59.5 -153.5
t145.5 -65.5t146.5 62.5t60.5 151.5z" />
    <glyph glyph-name="colon" unicode=":" horiz-adv-x="207" 
d="M152 455h-87v149h87v-149zM152 0h-87v149h87v-149z" />
    <glyph glyph-name="semicolon" unicode=";" horiz-adv-x="290" 
d="M242 455h-87v149h87v-149zM242 149l-99 -229h-87l99 229h87z" />
    <glyph glyph-name="less" unicode="&#x3c;" horiz-adv-x="710" 
d="M656 36l-601 284v78l601 268v-86l-487 -222l487 -234v-88z" />
    <glyph glyph-name="equal" unicode="=" horiz-adv-x="702" 
d="M651 434h-596v90h596v-90zM651 205h-596v90h596v-90z" />
    <glyph glyph-name="greater" unicode="&#x3e;" horiz-adv-x="714" 
d="M656 323l-601 -284v88l488 233l-488 223v86l601 -269v-77z" />
    <glyph glyph-name="question" unicode="?" horiz-adv-x="680" 
d="M627 613q0 -55 -18.5 -95.5t-59.5 -82.5l-64 -65q-30 -32 -37 -41q-16 -21 -28 -47t-17.5 -46t-5.5 -44h-94l4 38q3 30 9 49t23 49q23 41 61 80l47 46l40 41q26 27 37.5 55.5t11.5 65.5q0 76 -56.5 129t-134.5 53q-80 0 -139 -58t-59 -139v-17h-89v20q0 118 85 201
t204 83q115 0 197.5 -79.5t82.5 -195.5zM396 -2h-92v108h92v-108z" />
    <glyph glyph-name="at" unicode="@" horiz-adv-x="858" 
d="M822 480q0 -123 -79 -220t-185 -97q-46 0 -69 45q-7 15 -13 45l-33 -37q-21 -25 -46 -37t-59 -12q-65 0 -107 51.5t-42 121.5q0 102 86 178q78 69 160 69q32 0 54 -11.5t31 -38.5l11 -31l22 68l95 2l-86 -316q-3 -14 -3 -29q0 -17 4.5 -27t16.5 -10q67 0 124.5 89.5
t57.5 187.5q0 128 -99 204q-90 69 -222 69q-141 0 -241 -100t-100 -241q0 -147 102 -252t248 -105q106 0 182 41q55 30 89 76l24 42h72l-32 -55q-47 -65 -114 -104q-96 -56 -223 -56q-169 0 -288 120t-119 288q0 166 117.5 284.5t282.5 118.5q152 0 263 -88
q118 -93 118 -233zM511 462q0 43 -16.5 70t-48.5 27q-55 0 -106.5 -90.5t-51.5 -178.5q0 -39 16 -62q20 -29 59 -29q55 0 104 99q44 89 44 164z" />
    <glyph glyph-name="A" unicode="A" horiz-adv-x="917" 
d="M881 0h-97l-123 295h-405l-123 -295h-111l390 874h98zM630 374l-167 399l-170 -399h337z" />
    <glyph glyph-name="B" unicode="B" horiz-adv-x="658" 
d="M616 249q0 -105 -81 -177t-190 -72h-278v874h248q105 0 180 -60q80 -64 80 -165q0 -115 -100 -182q141 -65 141 -218zM486 667q-9 60 -58 92.5t-116 32.5h-155v-291h160q67 0 117 38q54 41 54 106q0 6 -2 22zM527 256q0 83 -63 126q-57 39 -152 39h-155v-339h160
q100 0 155 47t55 127z" />
    <glyph glyph-name="C" unicode="C" horiz-adv-x="943" 
d="M902 225q-60 -115 -162.5 -178.5t-233.5 -63.5q-185 0 -317.5 134.5t-132.5 321.5q0 194 130.5 321t319.5 127q130 0 235 -66t161 -175h-98q-56 80 -133 118t-172 38q-145 0 -251.5 -105.5t-106.5 -253.5q0 -154 106.5 -265.5t258.5 -111.5q89 0 171 45t128 114h97z" />
    <glyph glyph-name="D" unicode="D" horiz-adv-x="834" 
d="M802 437q0 -179 -129 -308t-308 -129h-296v874h253q210 0 345 -125t135 -312zM714 449q0 146 -112.5 244.5t-264.5 98.5h-184v-710h209q147 0 249.5 108.5t102.5 258.5z" />
    <glyph glyph-name="E" unicode="E" horiz-adv-x="581" 
d="M544 792h-393v-307h380v-82h-380v-321h392v-82h-477v874h478v-82z" />
    <glyph glyph-name="F" unicode="F" horiz-adv-x="558" 
d="M517 792h-352v-307h337v-82h-337v-403h-88v874h440v-82z" />
    <glyph glyph-name="G" unicode="G" horiz-adv-x="1038" 
d="M983 403q-21 -205 -176 -321q-130 -97 -287 -97q-189 0 -328 132.5t-139 320.5q0 191 134.5 320.5t327.5 129.5q143 0 238 -54q104 -59 175 -194h-98q-56 83 -140 124.5t-180 41.5q-148 0 -258 -104q-114 -108 -114 -260q0 -155 108.5 -264.5t268.5 -109.5q113 0 217 72
q108 75 146 185l-490 1v78z" />
    <glyph glyph-name="H" unicode="H" horiz-adv-x="736" 
d="M681 0h-85v403h-444v-403h-86v874h85v-389h445v389h85v-874z" />
    <glyph glyph-name="I" unicode="I" horiz-adv-x="280" 
d="M194 0h-88v874h88v-874z" />
    <glyph glyph-name="J" unicode="J" horiz-adv-x="576" 
d="M502 198q0 -91 -69 -153t-165 -62q-93 0 -162 65t-69 158h86q0 -58 43.5 -97.5t104.5 -39.5q55 0 99 38t44 92v675h88v-676z" />
    <glyph glyph-name="K" unicode="K" horiz-adv-x="710" 
d="M674 0h-105l-297 380l-114 -142v-238h-86v874h92v-497l399 497h111l-345 -425z" />
    <glyph glyph-name="L" unicode="L" horiz-adv-x="554" 
d="M512 0h-448v874h87v-792h361v-82z" />
    <glyph glyph-name="M" unicode="M" horiz-adv-x="1014" 
d="M976 0h-88v772l-333 -772h-73l-329 771l1 -771h-89v874h136l316 -753l326 753h133v-874z" />
    <glyph glyph-name="N" unicode="N" horiz-adv-x="799" 
d="M742 0h-96l-503 760v-760h-90v874h117l483 -733v733h89v-874z" />
    <glyph glyph-name="O" unicode="O" horiz-adv-x="1030" 
d="M974 444q0 -188 -135 -324t-324 -136q-187 0 -324 130t-137 315q0 189 133 324t322 135t327 -129t138 -315zM889 439q0 151 -111.5 257.5t-265.5 106.5q-151 0 -260 -108t-109 -259q0 -152 109 -260t261 -108q155 0 265.5 108.5t110.5 262.5z" />
    <glyph glyph-name="P" unicode="P" horiz-adv-x="691" 
d="M653 601q0 -106 -80.5 -179.5t-191.5 -73.5h-218v-348h-90v874h280q129 0 214.5 -77t85.5 -196zM563 620q0 75 -61.5 123.5t-143.5 48.5h-195v-364h200q84 0 140 51q60 54 60 141z" />
    <glyph glyph-name="Q" unicode="Q" horiz-adv-x="1049" 
d="M993 436q0 -104 -33.5 -181.5t-109.5 -149.5q30 -33 73 -41q17 -3 28 -3q12 0 27 3v-83q-18 -2 -26 -2q-11 0 -22 2t-18 3q-31 7 -51.5 17.5t-47.5 31.5l-30 23q-64 -40 -121 -56.5t-132 -16.5q-191 0 -330 127q-142 130 -142 316q0 190 133 326t323 136
q200 0 339.5 -130.5t139.5 -321.5zM905 440q0 152 -110 258t-267 106q-158 0 -270.5 -111.5t-112.5 -273.5q0 -24 4 -41.5t14 -46.5q43 15 92.5 23.5t91.5 8.5q73 0 143.5 -18.5t125.5 -50.5q38 -22 112 -80l60 -48q63 59 90 122.5t27 151.5zM717 116q-45 48 -106 85.5
t-129 57.5q-36 10 -73 16t-69 6q-69 0 -148 -25q41 -70 109 -120q60 -43 127 -60q43 -10 95 -10q47 0 87 7t59 17z" />
    <glyph glyph-name="R" unicode="R" horiz-adv-x="702" 
d="M662 588q0 -103 -68 -181t-167 -78l-24 -2l242 -327h-108l-296 396h85q115 0 180 58t65 150q0 80 -59.5 134t-159.5 54h-195v-792h-90v874h280q144 0 229.5 -80t85.5 -206z" />
    <glyph glyph-name="S" unicode="S" horiz-adv-x="628" 
d="M576 242q0 -107 -76 -182t-184 -75q-110 0 -186.5 74.5t-76.5 186.5h92q0 -72 49.5 -124.5t120.5 -52.5q72 0 124.5 50.5t52.5 124.5q0 64 -48 110q-41 40 -114 61l-94 28q-74 21 -115 78.5t-41 135.5q0 97 72 164t171 67t167 -70t68 -169h-93q0 63 -40.5 108t-101.5 45
q-63 0 -110.5 -43.5t-47.5 -105.5q0 -50 24 -83.5t77 -49.5l106 -33q100 -31 152 -92t52 -153z" />
    <glyph glyph-name="T" unicode="T" horiz-adv-x="584" 
d="M534 792h-200v-792h-87v792h-197v82h484v-82z" />
    <glyph glyph-name="U" unicode="U" horiz-adv-x="699" 
d="M650 284q0 -129 -87.5 -214.5t-213.5 -85.5q-123 0 -207 87t-84 216v587h86v-571q0 -98 59 -166t150 -68q88 0 148.5 62.5t60.5 154.5v588h88v-590z" />
    <glyph glyph-name="V" unicode="V" horiz-adv-x="857" 
d="M836 874l-360 -874h-85l-359 874h93l308 -766l311 766h92z" />
    <glyph glyph-name="W" unicode="W" horiz-adv-x="1168" 
d="M1142 874l-248 -874h-120l-192 717l-185 -717h-120l-245 874h90l215 -757l205 757h82l213 -754l207 754h98z" />
    <glyph glyph-name="X" unicode="X" horiz-adv-x="774" 
d="M739 0h-102l-253 376l-249 -376h-102l295 449l-285 425h105l235 -348l228 348h100l-278 -424z" />
    <glyph glyph-name="Y" unicode="Y" horiz-adv-x="796" 
d="M743 874l-299 -580v-294h-89v295l-294 579h91l247 -491l248 491h96z" />
    <glyph glyph-name="Z" unicode="Z" horiz-adv-x="647" 
d="M592 0h-540v75l426 717h-412v82h509v-79l-421 -713h438v-82z" />
    <glyph glyph-name="bracketleft" unicode="[" horiz-adv-x="337" 
d="M287 -141l-44 14q-19 6 -60 38q-49 38 -74 75q-29 42 -41.5 84t-12.5 90v404q0 61 14 103t51 91q26 34 64 63q33 25 61 36l42 16v-89l-22 -11q-55 -29 -88 -79q-20 -31 -29 -68.5t-9 -72.5v-395q0 -35 9 -63q6 -17 27 -58q11 -23 33 -42q18 -16 38 -26l41 -20v-90z" />
    <glyph glyph-name="backslash" unicode="\" horiz-adv-x="561" 
d="M506 -1h-82l-368 873h83z" />
    <glyph glyph-name="bracketright" unicode="]" horiz-adv-x="345" 
d="M288 160q0 -48 -12.5 -90t-40 -82t-74.5 -77q-39 -31 -62 -38l-43 -14v90l41 20q21 11 37 25q22 20 34 43q20 39 26 58q10 29 10 63v395q0 38 -8 73t-31 68q-19 29 -38 46t-50 33l-21 11v89l42 -16q28 -11 60 -35q39 -29 65 -64q35 -46 50 -91t15 -103v-404z" />
    <glyph glyph-name="asciicircum" unicode="^" horiz-adv-x="513" 
d="M468 722h-105l-101 89l-105 -88h-106l173 152h74z" />
    <glyph glyph-name="underscore" unicode="_" horiz-adv-x="762" 
d="M768 -142h-768v73h768v-73z" />
    <glyph glyph-name="grave" unicode="`" horiz-adv-x="371" 
d="M319 785l-40 -68l-225 135l40 65z" />
    <glyph glyph-name="a" unicode="a" horiz-adv-x="779" 
d="M715 0h-80v115q-55 -73 -112 -101.5t-141 -28.5q-141 0 -240 98t-99 245q0 145 101.5 239.5t252.5 94.5q73 0 131 -33t106 -98v116h81v-647zM632 330q0 101 -70.5 174.5t-170.5 73.5q-107 0 -185 -76t-78 -183q0 -103 73.5 -176.5t177.5 -73.5q110 0 181.5 76.5
t71.5 184.5z" />
    <glyph glyph-name="b" unicode="b" horiz-adv-x="784" 
d="M746 328q0 -140 -97 -242t-234 -102q-80 0 -145.5 27t-104.5 79l-13 17v-107h-83v874h85v-346l19 25q38 51 100 78.5t133 27.5q139 0 239.5 -96.5t100.5 -234.5zM657 321q0 106 -67 178q-70 76 -180 76t-185 -74t-75 -181q0 -108 73 -181t188 -73q102 0 174 76t72 179z
" />
    <glyph glyph-name="c" unicode="c" horiz-adv-x="781" 
d="M726 190l-10 -18q-103 -187 -315 -187q-141 0 -243.5 98.5t-102.5 237.5q0 141 102 242t244 101q103 0 190 -52.5t121 -131.5l13 -29h-98q-75 129 -222 129q-101 0 -181.5 -75t-80.5 -180q0 -106 76 -181t184 -75q71 0 128.5 29.5t96.5 91.5h98z" />
    <glyph glyph-name="d" unicode="d" horiz-adv-x="796" 
d="M727 874l-1 -874h-86v117l-13 -17q-40 -52 -107 -83t-145 -31q-134 0 -233.5 104.5t-99.5 246.5q0 137 98 232t241 95q74 0 136.5 -26t102.5 -79l18 -25v340h89zM638 329q0 105 -77 178t-184 73q-109 0 -177 -73t-68 -178t71.5 -182.5t172.5 -77.5q112 0 187 76t75 184z
" />
    <glyph glyph-name="e" unicode="e" horiz-adv-x="777" 
d="M725 294h-581q10 -97 81.5 -160.5t171.5 -63.5q75 0 131 36t89 106h91q-36 -105 -122 -167t-191 -62q-134 0 -237 99t-103 236q0 144 103 245t250 101q128 0 224 -102q93 -99 93 -222v-46zM639 373q-17 92 -84 148.5t-160 56.5q-95 0 -164.5 -56t-86.5 -149h495z" />
    <glyph glyph-name="f" unicode="f" horiz-adv-x="464" 
d="M402 797l-24 -1q-34 0 -54.5 -6t-42 -27.5t-30.5 -38.5q-12 -22 -12 -50v-27h162v-79h-162v-568h-87v568h-99v79h99v12q0 53 14 90.5t51 69.5q29 26 70 40.5t91 14.5h24v-77z" />
    <glyph glyph-name="g" unicode="g" horiz-adv-x="770" 
d="M697 31q0 -122 -102 -203q-97 -77 -228 -77q-116 0 -200 68q-78 63 -106 164h84q18 -66 85 -114t147 -48q96 0 166.5 65.5t70.5 157.5v83l-10 -17q-35 -60 -97 -93t-140 -33q-142 0 -237 99t-95 238q0 137 92 239t225 102q85 0 147 -31t112 -100v116h86v-616zM612 327
q0 104 -77 177t-184 73q-96 0 -163.5 -74.5t-67.5 -175.5q0 -104 70 -181t171 -77q104 0 177.5 76.5t73.5 181.5z" />
    <glyph glyph-name="h" unicode="h" horiz-adv-x="676" 
d="M619 0h-87v376q0 83 -59 141t-142 58q-81 0 -137.5 -53.5t-56.5 -137.5v-384h-90v874h88v-320q40 52 82 76q47 27 107 27q123 0 209 -82.5t86 -207.5v-367z" />
    <glyph glyph-name="i" unicode="i" horiz-adv-x="280" 
d="M185 724h-85v150h85v-150zM185 0h-85v647h85v-647z" />
    <glyph glyph-name="j" unicode="j" horiz-adv-x="280" 
d="M192 722h-90v152h90v-152zM190 -17q0 -42 -7 -73.5t-26 -53.5t-49 -37t-54 -18l-24 -4v85q41 5 60 35q5 8 8.5 22t3.5 34v26v648h88v-664z" />
    <glyph glyph-name="k" unicode="k" horiz-adv-x="625" 
d="M593 0h-113l-210 254l-103 -131v-123h-93v874h90v-615l299 388h108l-247 -326z" />
    <glyph glyph-name="l" unicode="l" horiz-adv-x="280" 
d="M186 0h-87v874h87v-874z" />
    <glyph glyph-name="m" unicode="m" horiz-adv-x="1078" 
d="M1036 0h-90v397q0 74 -50 128t-122 54q-71 0 -123 -47t-52 -115v-417h-90v403q0 71 -52 123t-123 52q-72 0 -122 -48t-50 -123v-407h-90v647h83v-83q35 49 67 70q40 26 95 26q77 0 140 -29.5t97 -90.5q37 58 90 89.5t115 31.5q13 0 20 -1q105 0 179 -74q78 -78 78 -199
v-387z" />
    <glyph glyph-name="n" unicode="n" horiz-adv-x="675" 
d="M641 0h-87v378q0 83 -59 141t-142 58q-81 0 -137.5 -49.5t-56.5 -131.5v-396h-90v647h80v-91q81 106 199 106q124 0 208.5 -83.5t84.5 -210.5v-368z" />
    <glyph glyph-name="o" unicode="o" horiz-adv-x="775" 
d="M720 325q0 -139 -101 -239t-242 -100q-134 0 -228 100t-94 237q0 141 100.5 240.5t241.5 99.5q134 0 228.5 -100.5t94.5 -237.5zM633 330q0 102 -71 175t-172 73q-103 0 -176 -73t-73 -176q0 -104 69 -182t167 -78q108 0 182 77t74 184z" />
    <glyph glyph-name="p" unicode="p" horiz-adv-x="787" 
d="M753 320q0 -137 -100 -235t-239 -98q-73 0 -134.5 26.5t-102.5 79.5l-19 25v-344h-87v873h83v-111l14 17q39 51 107 80t148 29q137 0 233.5 -101.5t96.5 -240.5zM664 326q0 102 -71.5 177.5t-172.5 75.5q-116 0 -192 -73t-76 -181q0 -106 77.5 -179.5t188.5 -73.5
q109 0 177.5 73.5t68.5 180.5z" />
    <glyph glyph-name="q" unicode="q" horiz-adv-x="792" 
d="M719 -226h-89v343l-19 -25q-40 -53 -101.5 -79.5t-134.5 -26.5q-139 0 -238.5 97.5t-99.5 234.5q0 140 96 241t233 101q80 0 148 -29t107 -80l13 -16v112h85v-873zM636 323q0 109 -75.5 181.5t-190.5 72.5q-101 0 -172.5 -74.5t-71.5 -177.5q0 -106 66 -178
q70 -76 179 -76q110 0 187.5 72.5t77.5 179.5z" />
    <glyph glyph-name="r" unicode="r" horiz-adv-x="371" 
d="M336 573q-24 0 -50 -7.5t-48 -25.5q-38 -31 -51 -53q-22 -37 -22 -100v-387h-90v647h80v-91q14 26 34.5 46.5t45.5 34t47.5 18.5t53.5 5v-87z" />
    <glyph glyph-name="s" unicode="s" horiz-adv-x="520" 
d="M465 192q0 -87 -64.5 -147.5t-153.5 -60.5q-81 0 -136.5 61.5t-55.5 145.5h90v-20q0 -33 36 -68t78 -35q54 0 84.5 31.5t30.5 78.5q0 42 -25.5 71.5t-68.5 42.5l-76 24q-57 17 -91 60t-34 102q0 75 53 130t128 55q67 0 123 -43q61 -47 61 -114l1 -19h-90v15
q0 34 -28.5 55t-66.5 21q-37 0 -64.5 -25.5t-27.5 -62.5q0 -36 23.5 -62t60.5 -38l75 -25q63 -21 100.5 -65.5t37.5 -107.5z" />
    <glyph glyph-name="t" unicode="t" horiz-adv-x="483" 
d="M429 568h-150v-568h-86v567h-134v81h134v226h88v-226h148v-80z" />
    <glyph glyph-name="u" unicode="u" horiz-adv-x="684" 
d="M623 0h-80v91q-41 -53 -89 -80t-109 -27q-125 0 -209.5 83.5t-84.5 210.5v369h87v-379q0 -82 59 -140t143 -58q80 0 136.5 49.5t56.5 131.5v396h90v-647z" />
    <glyph glyph-name="v" unicode="v" horiz-adv-x="684" 
d="M657 647l-270 -647h-89l-266 647h91l220 -534l219 534h95z" />
    <glyph glyph-name="w" unicode="w" horiz-adv-x="1026" 
d="M997 647l-244 -647h-101l-140 428l-132 -428h-100l-245 647h91l202 -539l149 461h74l147 -458l205 536h94z" />
    <glyph glyph-name="x" unicode="x" horiz-adv-x="613" 
d="M579 0h-107l-171 258l-169 -258h-102l217 330l-220 317h100l174 -247l170 247h105l-224 -319z" />
    <glyph glyph-name="y" unicode="y" horiz-adv-x="669" 
d="M645 647l-367 -872h-93l98 246l-248 626h95l205 -513l218 513h92z" />
    <glyph glyph-name="z" unicode="z" horiz-adv-x="591" 
d="M533 0h-478v80l347 487h-334v80h439v-82l-343 -485h369v-80z" />
    <glyph glyph-name="braceleft" unicode="{" horiz-adv-x="353" 
d="M332 871q-47 -9 -74 -45q-15 -18 -19.5 -38.5t-4.5 -50.5v-255q0 -29 -5.5 -48t-22.5 -38q-33 -41 -82 -41q45 -8 76 -43q19 -21 26.5 -43.5t7.5 -54.5v-284q0 -16 3 -28.5t12 -25.5q17 -26 45 -37l21 -7h-51q-28 0 -49 9t-36.5 28t-19.5 42.5t-4 48.5v254
q0 33 -5.5 51.5t-22 40.5t-32 32t-40.5 17q45 8 74 44q18 22 22.5 46t4.5 61v220q0 37 7.5 62t30.5 47q18 18 50.5 27t46.5 9h41z" />
    <glyph glyph-name="bar" unicode="|" horiz-adv-x="171" 
d="M119 -227h-62v1096h61z" />
    <glyph glyph-name="braceright" unicode="}" horiz-adv-x="379" 
d="M323 355q-23 -7 -40 -17.5t-32.5 -31t-21.5 -42t-6 -50.5v-254q0 -29 -2 -41q-5 -29 -20 -48q-32 -39 -87 -39h-51l21 7q28 11 44 35.5t16 55.5v284q0 34 6.5 54t27.5 44q31 35 76 43q-49 0 -82 41q-16 18 -22 38.5t-6 47.5v255q0 33 -4 50.5t-20 38.5q-27 36 -74 45h41
q16 0 47 -8.5t52 -29t28.5 -45t7.5 -62.5v-220q0 -50 6 -69t21 -38q29 -36 74 -44z" />
    <glyph glyph-name="asciitilde" unicode="~" horiz-adv-x="588" 
d="M536 812l-36 -53q-10 -14 -33 -28q-29 -18 -54 -22q-4 -1 -13 -1q-16 0 -36.5 5.5t-44.5 15.5l-72 30q-19 9 -32.5 13t-29.5 2q-22 -4 -38.5 -16t-29.5 -33l-22 -36l-40 43l16 27q21 37 40 55q27 25 64 31q16 2 22 2q27 0 62 -16l96 -40q10 -5 21.5 -8.5t28.5 -1.5
q20 0 39.5 13t27.5 27l22 38z" />
    <glyph glyph-name="Adieresis" unicode="&#xc4;" horiz-adv-x="922" 
d="M910 0h-97l-123 295h-405l-123 -295h-111l390 874h98zM659 374l-167 399l-170 -399h337zM625 910h-83v147h83v-147zM452 910h-82v147h82v-147z" />
    <glyph glyph-name="Aring" unicode="&#xc5;" horiz-adv-x="908" 
d="M583 1021q0 -44 -32 -77t-77 -33t-77.5 33.5t-32.5 78.5q0 42 31 74t74 32q46 0 80 -31t34 -77zM539 1021q0 27 -19 46t-47 19q-26 0 -45.5 -18.5t-19.5 -46.5q0 -27 19.5 -46.5t46.5 -19.5t46 20t19 46zM881 0h-97l-123 295h-405l-123 -295h-111l390 874h98zM630 374
l-167 399l-170 -399h337z" />
    <glyph glyph-name="Ccedilla" unicode="&#xc7;" horiz-adv-x="952" 
d="M917 641h-97q-57 82 -131.5 121t-176.5 39q-151 0 -260 -105.5t-109 -255.5q0 -153 111 -262t266 -109q93 0 163.5 38.5t124.5 117.5h92q-35 -70 -83.5 -118t-106.5 -74q-103 -47 -235 -47l-22 -54q18 10 32 10q40 0 68 -26t28 -65q0 -46 -29.5 -79.5t-73.5 -33.5
q-42 0 -70 23t-35 63l49 7q4 -19 21.5 -31t34.5 -10q23 0 37.5 15.5t14.5 39.5q0 25 -18.5 40.5t-43.5 15.5q-26 0 -43 -25l-37 21l43 94q-166 28 -270 152t-104 294q0 185 133 316t318 131q138 0 242 -62t167 -181z" />
    <glyph glyph-name="Eacute" unicode="&#xc9;" horiz-adv-x="580" 
d="M544 792h-393v-307h380v-82h-380v-321h392v-82h-477v874h478v-82zM459 1046l-225 -135l-40 68l225 132z" />
    <glyph glyph-name="Ntilde" unicode="&#xd1;" horiz-adv-x="800" 
d="M742 0h-96l-503 760v-760h-90v874h117l483 -733v733h89v-874zM647 1034l-36 -53q-10 -14 -33 -28q-29 -18 -54 -22q-4 -1 -13 -1q-16 0 -36.5 5.5t-44.5 15.5l-72 30q-19 9 -32.5 13t-29.5 2q-22 -4 -38.5 -16t-29.5 -33l-22 -36l-40 43l16 27q21 37 40 55q27 25 64 31
q16 2 22 2q27 0 62 -16l96 -40q10 -5 21.5 -8.5t28.5 -1.5q20 0 39.5 13t27.5 27l22 38z" />
    <glyph glyph-name="Odieresis" unicode="&#xd6;" horiz-adv-x="1027" 
d="M974 444q0 -188 -135 -324t-324 -136q-187 0 -324 130t-137 315q0 189 133 324t322 135t327 -129t138 -315zM889 439q0 151 -111.5 257.5t-265.5 106.5q-151 0 -260 -108t-109 -259q0 -152 109 -260t261 -108q155 0 265.5 108.5t110.5 262.5zM658 911h-83v147h83v-147z
M485 911h-82v147h82v-147z" />
    <glyph glyph-name="Udieresis" unicode="&#xdc;" horiz-adv-x="700" 
d="M650 284q0 -129 -87.5 -214.5t-213.5 -85.5q-123 0 -207 87t-84 216v587h86v-571q0 -98 59 -166t150 -68q88 0 148.5 62.5t60.5 154.5v588h88v-590zM491 912h-83v147h83v-147zM318 912h-82v147h82v-147z" />
    <glyph glyph-name="aacute" unicode="&#xe1;" 
d="M715 0h-80v115q-55 -73 -112 -101.5t-141 -28.5q-141 0 -240 98t-99 245q0 145 101.5 239.5t252.5 94.5q73 0 131 -33t106 -98v116h81v-647zM632 330q0 101 -70.5 174.5t-170.5 73.5q-107 0 -185 -76t-78 -183q0 -103 73.5 -176.5t177.5 -73.5q110 0 181.5 76.5
t71.5 184.5zM526 845l-225 -135l-40 68l225 132z" />
    <glyph glyph-name="agrave" unicode="&#xe0;" 
d="M715 0h-80v115q-55 -73 -112 -101.5t-141 -28.5q-141 0 -240 98t-99 245q0 145 101.5 239.5t252.5 94.5q73 0 131 -33t106 -98v116h81v-647zM632 330q0 101 -70.5 174.5t-170.5 73.5q-107 0 -185 -76t-78 -183q0 -103 73.5 -176.5t177.5 -73.5q110 0 181.5 76.5
t71.5 184.5zM526 777l-40 -68l-225 135l40 65z" />
    <glyph glyph-name="acircumflex" unicode="&#xe2;" horiz-adv-x="781" 
d="M715 0h-80v115q-55 -73 -112 -101.5t-141 -28.5q-141 0 -240 98t-99 245q0 145 101.5 239.5t252.5 94.5q73 0 131 -33t106 -98v116h81v-647zM632 330q0 101 -70.5 174.5t-170.5 73.5q-107 0 -185 -76t-78 -183q0 -103 73.5 -176.5t177.5 -73.5q110 0 181.5 76.5
t71.5 184.5zM612 757h-105l-101 89l-105 -88h-106l173 152h74z" />
    <glyph glyph-name="adieresis" unicode="&#xe4;" 
d="M715 0h-80v115q-55 -73 -112 -101.5t-141 -28.5q-141 0 -240 98t-99 245q0 145 101.5 239.5t252.5 94.5q73 0 131 -33t106 -98v116h81v-647zM632 330q0 101 -70.5 174.5t-170.5 73.5q-107 0 -185 -76t-78 -183q0 -103 73.5 -176.5t177.5 -73.5q110 0 181.5 76.5
t71.5 184.5zM514 762h-83v147h83v-147zM341 762h-82v147h82v-147z" />
    <glyph glyph-name="atilde" unicode="&#xe3;" 
d="M715 0h-80v115q-55 -73 -112 -101.5t-141 -28.5q-141 0 -240 98t-99 245q0 145 101.5 239.5t252.5 94.5q73 0 131 -33t106 -98v116h81v-647zM632 330q0 101 -70.5 174.5t-170.5 73.5q-107 0 -185 -76t-78 -183q0 -103 73.5 -176.5t177.5 -73.5q110 0 181.5 76.5
t71.5 184.5zM639 867l-36 -53q-10 -14 -33 -28q-29 -18 -54 -22q-4 -1 -13 -1q-16 0 -36.5 5.5t-44.5 15.5l-72 30q-19 9 -32.5 13t-29.5 2q-22 -4 -38.5 -16t-29.5 -33l-22 -36l-40 43l16 27q21 37 40 55q27 25 64 31q16 2 22 2q27 0 62 -16l96 -40q10 -5 21.5 -8.5
t28.5 -1.5q20 0 39.5 13t27.5 27l22 38z" />
    <glyph glyph-name="aring" unicode="&#xe5;" 
d="M512 811q0 -44 -32 -77t-77 -33q-44 0 -77 33t-33 78q0 44 31 75t74 31q46 0 80 -31t34 -76zM468 811q0 27 -19 46t-47 19q-27 0 -46 -19t-19 -46t19.5 -46.5t46.5 -19.5t46 19t19 47zM715 0h-80v115q-55 -73 -112 -101.5t-141 -28.5q-141 0 -240 98t-99 245
q0 145 101.5 239.5t252.5 94.5q73 0 131 -33t106 -98v116h81v-647zM632 330q0 101 -70.5 174.5t-170.5 73.5q-107 0 -185 -76t-78 -183q0 -103 73.5 -176.5t177.5 -73.5q110 0 181.5 76.5t71.5 184.5z" />
    <glyph glyph-name="ccedilla" unicode="&#xe7;" horiz-adv-x="769" 
d="M718 443h-97q-71 135 -223 135q-105 0 -180 -74t-75 -179q0 -107 77 -182t184 -75q66 0 123.5 32.5t89.5 82.5h95q-23 -54 -63 -96q-43 -46 -106.5 -74.5t-124.5 -28.5q-10 0 -21.5 1t-18.5 1l-23 -54q18 7 36 7q37 0 64 -26t27 -65q4 -45 -27.5 -79.5t-76.5 -34.5
q-40 0 -69 25t-35 65l52 5q5 -21 21 -32t38 -9q20 3 33 18t13 37q0 24 -17 40t-41 16q-30 0 -45 -26l-36 24l44 93q-125 23 -202 116t-77 220q0 140 101.5 238.5t243.5 98.5q112 0 194 -57t122 -163z" />
    <glyph glyph-name="eacute" unicode="&#xe9;" horiz-adv-x="770" 
d="M725 294h-581q10 -97 81.5 -160.5t171.5 -63.5q75 0 131 36t89 106h91q-36 -105 -122 -167t-191 -62q-134 0 -237 99t-103 236q0 144 103 245t250 101q128 0 224 -102q93 -99 93 -222v-46zM639 373q-17 92 -84 148.5t-160 56.5q-95 0 -164.5 -56t-86.5 -149h495zM541 845
l-225 -135l-40 68l225 132z" />
    <glyph glyph-name="egrave" unicode="&#xe8;" horiz-adv-x="782" 
d="M725 294h-581q10 -97 81.5 -160.5t171.5 -63.5q75 0 131 36t89 106h91q-36 -105 -122 -167t-191 -62q-134 0 -237 99t-103 236q0 144 103 245t250 101q128 0 224 -102q93 -99 93 -222v-46zM639 373q-17 92 -84 148.5t-160 56.5q-95 0 -164.5 -56t-86.5 -149h495zM545 783
l-40 -68l-225 135l40 65z" />
    <glyph glyph-name="ecircumflex" unicode="&#xea;" horiz-adv-x="774" 
d="M725 294h-581q10 -97 81.5 -160.5t171.5 -63.5q75 0 131 36t89 106h91q-36 -105 -122 -167t-191 -62q-134 0 -237 99t-103 236q0 144 103 245t250 101q128 0 224 -102q93 -99 93 -222v-46zM639 373q-17 92 -84 148.5t-160 56.5q-95 0 -164.5 -56t-86.5 -149h495zM613 757
h-105l-101 89l-105 -88h-106l173 152h74z" />
    <glyph glyph-name="edieresis" unicode="&#xeb;" 
d="M725 294h-581q10 -97 81.5 -160.5t171.5 -63.5q75 0 131 36t89 106h91q-36 -105 -122 -167t-191 -62q-134 0 -237 99t-103 236q0 144 103 245t250 101q128 0 224 -102q93 -99 93 -222v-46zM639 373q-17 92 -84 148.5t-160 56.5q-95 0 -164.5 -56t-86.5 -149h495zM526 762
h-83v147h83v-147zM353 762h-82v147h82v-147z" />
    <glyph glyph-name="iacute" unicode="&#xed;" horiz-adv-x="301" 
d="M187 -1h-85v649h85v-649zM283 852l-225 -135l-40 68l225 132z" />
    <glyph glyph-name="igrave" unicode="&#xec;" horiz-adv-x="304" 
d="M192 -3h-85v649h85v-649zM281 778l-40 -68l-225 135l40 65z" />
    <glyph glyph-name="icircumflex" unicode="&#xee;" horiz-adv-x="273" 
d="M183 -3h-85v649h85v-649zM349 757h-105l-101 89l-105 -88h-106l173 152h74z" />
    <glyph glyph-name="idieresis" unicode="&#xef;" horiz-adv-x="283" 
d="M186 -3h-85v649h85v-649zM270 767h-83v147h83v-147zM97 767h-82v147h82v-147z" />
    <glyph glyph-name="ntilde" unicode="&#xf1;" horiz-adv-x="688" 
d="M685 0h-87v378q0 83 -59 141t-142 58q-81 0 -137.5 -49.5t-56.5 -131.5v-396h-90v647h80v-91q81 106 199 106q124 0 208.5 -83.5t84.5 -210.5v-368zM642 869l-36 -53q-10 -14 -33 -28q-29 -18 -54 -22q-4 -1 -13 -1q-16 0 -36.5 5.5t-44.5 15.5l-72 30q-19 9 -32.5 13
t-29.5 2q-22 -4 -38.5 -16t-29.5 -33l-22 -36l-40 43l16 27q21 37 40 55q27 25 64 31q16 2 22 2q27 0 62 -16l96 -40q10 -5 21.5 -8.5t28.5 -1.5q20 0 39.5 13t27.5 27l22 38z" />
    <glyph glyph-name="oacute" unicode="&#xf3;" horiz-adv-x="767" 
d="M720 325q0 -139 -101 -239t-242 -100q-134 0 -228 100t-94 237q0 141 100.5 240.5t241.5 99.5q134 0 228.5 -100.5t94.5 -237.5zM633 330q0 102 -71 175t-172 73q-103 0 -176 -73t-73 -176q0 -104 69 -182t167 -78q108 0 182 77t74 184zM521 847l-225 -135l-40 68
l225 132z" />
    <glyph glyph-name="ograve" unicode="&#xf2;" horiz-adv-x="774" 
d="M720 325q0 -139 -101 -239t-242 -100q-134 0 -228 100t-94 237q0 141 100.5 240.5t241.5 99.5q134 0 228.5 -100.5t94.5 -237.5zM633 330q0 102 -71 175t-172 73q-103 0 -176 -73t-73 -176q0 -104 69 -182t167 -78q108 0 182 77t74 184zM523 777l-40 -68l-225 135l40 65z
" />
    <glyph glyph-name="ocircumflex" unicode="&#xf4;" horiz-adv-x="770" 
d="M720 325q0 -139 -101 -239t-242 -100q-134 0 -228 100t-94 237q0 141 100.5 240.5t241.5 99.5q134 0 228.5 -100.5t94.5 -237.5zM633 330q0 102 -71 175t-172 73q-103 0 -176 -73t-73 -176q0 -104 69 -182t167 -78q108 0 182 77t74 184zM590 757h-105l-101 89l-105 -88
h-106l173 152h74z" />
    <glyph glyph-name="odieresis" unicode="&#xf6;" horiz-adv-x="774" 
d="M720 325q0 -139 -101 -239t-242 -100q-134 0 -228 100t-94 237q0 141 100.5 240.5t241.5 99.5q134 0 228.5 -100.5t94.5 -237.5zM633 330q0 102 -71 175t-172 73q-103 0 -176 -73t-73 -176q0 -104 69 -182t167 -78q108 0 182 77t74 184zM522 762h-83v147h83v-147z
M349 762h-82v147h82v-147z" />
    <glyph glyph-name="otilde" unicode="&#xf5;" horiz-adv-x="774" 
d="M720 325q0 -139 -101 -239t-242 -100q-134 0 -228 100t-94 237q0 141 100.5 240.5t241.5 99.5q134 0 228.5 -100.5t94.5 -237.5zM633 330q0 102 -71 175t-172 73q-103 0 -176 -73t-73 -176q0 -104 69 -182t167 -78q108 0 182 77t74 184zM639 867l-36 -53q-10 -14 -33 -28
q-29 -18 -54 -22q-4 -1 -13 -1q-16 0 -36.5 5.5t-44.5 15.5l-72 30q-19 9 -32.5 13t-29.5 2q-22 -4 -38.5 -16t-29.5 -33l-22 -36l-40 43l16 27q21 37 40 55q27 25 64 31q16 2 22 2q27 0 62 -16l96 -40q10 -5 21.5 -8.5t28.5 -1.5q20 0 39.5 13t27.5 27l22 38z" />
    <glyph glyph-name="uacute" unicode="&#xfa;" horiz-adv-x="681" 
d="M623 0h-80v91q-41 -53 -89 -80t-109 -27q-125 0 -209.5 83.5t-84.5 210.5v369h87v-379q0 -82 59 -140t143 -58q80 0 136.5 49.5t56.5 131.5v396h90v-647zM487 850l-225 -135l-40 68l225 132z" />
    <glyph glyph-name="ugrave" unicode="&#xf9;" horiz-adv-x="685" 
d="M623 0h-80v91q-41 -53 -89 -80t-109 -27q-125 0 -209.5 83.5t-84.5 210.5v369h87v-379q0 -82 59 -140t143 -58q80 0 136.5 49.5t56.5 131.5v396h90v-647zM481 777l-40 -68l-225 135l40 65z" />
    <glyph glyph-name="ucircumflex" unicode="&#xfb;" horiz-adv-x="681" 
d="M623 0h-80v91q-41 -53 -89 -80t-109 -27q-125 0 -209.5 83.5t-84.5 210.5v369h87v-379q0 -82 59 -140t143 -58q80 0 136.5 49.5t56.5 131.5v396h90v-647zM555 752h-105l-101 89l-105 -88h-106l173 152h74z" />
    <glyph glyph-name="udieresis" unicode="&#xfc;" horiz-adv-x="681" 
d="M623 0h-80v91q-41 -53 -89 -80t-109 -27q-125 0 -209.5 83.5t-84.5 210.5v369h87v-379q0 -82 59 -140t143 -58q80 0 136.5 49.5t56.5 131.5v396h90v-647zM470 762h-83v147h83v-147zM297 762h-82v147h82v-147z" />
    <glyph glyph-name="dagger" unicode="&#x2020;" horiz-adv-x="610" 
d="M558 556h-210v-721h-90v723h-202v80h207v236h85v-237h210v-81z" />
    <glyph glyph-name="degree" unicode="&#xb0;" horiz-adv-x="460" 
d="M409 735q0 -74 -54.5 -125t-130.5 -51q-71 0 -120.5 51.5t-49.5 124.5q0 72 53 124t127 52q71 0 123 -52t52 -124zM361 735q0 52 -36.5 89.5t-88.5 37.5q-54 0 -94.5 -35.5t-40.5 -87.5q0 -54 36 -94t89 -40q56 0 95.5 37.5t39.5 92.5z" />
    <glyph glyph-name="cent" unicode="&#xa2;" horiz-adv-x="654" 
d="M608 521h-94q-29 53 -70 79t-102 26q-79 0 -136.5 -54.5t-57.5 -132.5q0 -80 58.5 -137.5t137.5 -57.5q44 0 83 17q46 20 76 59h96q-16 -40 -38.5 -67.5t-60.5 -52.5q-32 -21 -58.5 -31t-59.5 -10v-106h-75v108q-106 10 -177 90.5t-71 186.5q0 107 76.5 187t184.5 80v110
h77v-111q65 -10 112 -42q33 -23 59.5 -59.5t39.5 -81.5z" />
    <glyph glyph-name="sterling" unicode="&#xa3;" horiz-adv-x="777" 
d="M712 307q13 -39 13 -79q0 -83 -64 -153q-71 -77 -173 -77h-396v81h171q47 58 47 144q0 50 -22 89q-18 33 -61 72l-26 23h-146v80h89q-24 53 -24 113q0 116 80.5 199.5t196.5 83.5q113 0 196.5 -72.5t94.5 -183.5h-83q-12 77 -72.5 123.5t-140.5 46.5q-78 0 -133 -58
t-55 -137q0 -39 5.5 -61.5t23.5 -54.5h333v-81h-252q39 -35 61.5 -82.5t22.5 -106.5q0 -44 -8 -73.5t-32 -66.5h118q39 0 75.5 18t60.5 54q28 43 28 94q0 34 -13 65h85z" />
    <glyph glyph-name="section" unicode="&#xa7;" horiz-adv-x="624" 
d="M571 341q0 -54 -30.5 -104.5t-66.5 -68.5q54 -50 61 -122q1 -6 1 -19q0 -81 -65.5 -137.5t-155.5 -56.5q-106 0 -174.5 69.5t-68.5 171.5h82q0 -57 44 -108q48 -56 116 -56q56 0 90 22q48 31 48 104q0 39 -43 79q-35 33 -55 37l-229 123q-11 5 -27 19q-21 19 -29.5 36
t-11 31.5t-2.5 36.5v15q0 32 10 57.5t29 49.5q28 35 63 55q-26 29 -36.5 56t-10.5 66q0 78 59 132t141 54q78 0 139 -42q68 -46 68 -118l2 -15h-83l-2 12q-7 39 -43.5 59.5t-79.5 20.5q-48 0 -81 -28t-38 -74q-3 -41 26 -72q22 -24 71 -48l170 -87q53 -26 80 -59
q32 -39 32 -91zM488 321q0 45 -26 71q-17 17 -84 51l-76 39l-48 26l-47 25l-13 -8q-13 -8 -33 -42q-24 -41 -24 -72q0 -57 54 -85l227 -117q24 12 45 42q25 35 25 70z" />
    <glyph glyph-name="bullet" unicode="&#x2022;" horiz-adv-x="539" 
d="M488 322q0 -92 -64.5 -157.5t-155.5 -65.5q-90 0 -150 69.5t-60 163.5q0 88 64.5 149t155.5 61q88 0 149 -65t61 -155z" />
    <glyph glyph-name="paragraph" unicode="&#xb6;" horiz-adv-x="647" 
d="M588 -167h-89v960h-132v-958h-90v583q-92 0 -157 67t-65 160t64 161t157 68h312v-1041z" />
    <glyph glyph-name="germandbls" unicode="&#xdf;" horiz-adv-x="643" 
d="M593 241q0 -105 -74.5 -181.5t-178.5 -76.5q-73 0 -126 37t-84 106l1 -128h-76v643q0 107 68.5 173.5t169.5 66.5q103 0 177.5 -70.5t74.5 -171.5q0 -61 -16 -99q-19 -45 -64 -74l-20 -13l18 -7q68 -26 99 -78t31 -127zM507 244q0 64 -46 109t-110 45h-95v83h65
q60 0 99.5 49.5t39.5 115.5q0 63 -47 107t-112 44q-64 0 -108.5 -50.5t-44.5 -117.5v-388h54q-1 -7 -1 -13v-7q0 -58 38.5 -102.5t96.5 -51.5q6 -1 17 -1q63 0 108.5 54.5t45.5 123.5z" />
    <glyph glyph-name="registered" unicode="&#xae;" horiz-adv-x="957" 
d="M484 6q-203 0 -322 133q-107 120 -107 295t107 295q119 134 322 134q202 0 321 -134q107 -121 107 -295t-106 -294q-119 -134 -322 -134zM484 52q181 0 287 119q96 108 96 263t-96 263q-107 120 -287 120q-181 0 -287 -119q-96 -108 -96 -264q0 -155 96 -263
q106 -119 287 -119zM689 171h-54l-4 1q-11 22 -13 110t-43 110q-14 7 -25.5 9.5t-30.5 2.5h-22h-136v-233h-51v515h189q83 0 128 -24q61 -33 61 -111q0 -47 -21.5 -78t-63.5 -49l27.5 -17.5t22 -25t12 -35t3.5 -38.5q0 -8 -1 -25t-1 -27q0 -32 11 -65zM638 545q0 55 -41 79
q-32 19 -89 19h-147v-195h144q58 0 90 18q43 24 43 79z" />
    <glyph glyph-name="copyright" unicode="&#xa9;" horiz-adv-x="961" 
d="M488 3q-203 0 -322 133q-107 120 -107 295t107 295q119 134 322 134q202 0 321 -134q107 -121 107 -295t-106 -294q-119 -134 -322 -134zM488 49q181 0 287 119q96 108 96 263t-96 263q-107 120 -287 120q-181 0 -287 -119q-96 -108 -96 -264q0 -155 96 -263
q106 -119 287 -119zM699 345q-15 -82 -76 -132t-148 -50q-110 0 -165 83q-46 70 -46 182t56 188q63 85 171 85q75 0 131 -38.5t68 -106.5l4 -20h-52l-3 17q-11 48 -54 75t-95 27q-91 0 -137 -71q-39 -60 -39 -155q0 -96 29 -146q39 -67 135 -78q5 -1 15 -1q54 0 99 40.5
t56 100.5h51z" />
    <glyph glyph-name="trademark" unicode="&#x2122;" horiz-adv-x="849" 
d="M364 839h-134v-393h-42v393h-133v36h309v-36zM795 446h-41v379l-142 -378h-38l-136 379v-380h-42l-1 427h66l134 -375l139 374h61v-426z" />
    <glyph glyph-name="acute" unicode="&#xb4;" horiz-adv-x="379" 
d="M323 877l-225 -135l-40 68l225 132z" />
    <glyph glyph-name="dieresis" unicode="&#xa8;" horiz-adv-x="367" 
d="M311 727h-83v147h83v-147zM138 727h-82v147h82v-147z" />
    <glyph glyph-name="notequal" unicode="&#x2260;" horiz-adv-x="632" 
d="M579 189h-352l-104 -191l-61 33l87 158h-91v65h126l93 165h-219v65h251l108 195l57 -32l-87 -163h192v-65h-227l-90 -165h317v-65z" />
    <glyph glyph-name="AE" unicode="&#xc6;" horiz-adv-x="1226" 
d="M1164 793h-392v-310h377v-82h-377v-319h390v-83l-493 1v294h-334l-205 -294h-95l611 874h518v-81zM669 373v400l-278 -400h278z" />
    <glyph glyph-name="Oslash" unicode="&#xd8;" horiz-adv-x="1030" 
d="M974 444q0 -188 -135 -324t-324 -136q-60 0 -112 13l-21 -64h-82l29 89q-122 53 -197 160q-78 112 -78 247q0 189 133 324t322 135q51 0 104 -11l22 66h80l-29 -89q127 -51 207.5 -161.5t80.5 -248.5zM586 796q-34 7 -74 7q-151 0 -260 -108t-109 -259
q0 -109 58.5 -198.5t154.5 -134.5zM889 439q0 111 -64 201.5t-166 133.5l-229 -696q37 -10 83 -10q155 0 265.5 108.5t110.5 262.5z" />
    <glyph glyph-name="infinity" unicode="&#x221e;" horiz-adv-x="976" 
d="M931 310q0 -85 -56 -140q-52 -51 -124 -51q-48 0 -101.5 22t-99.5 64l-56 53l-57 -53q-44 -40 -99 -63t-102 -23q-72 0 -124 51q-56 55 -56 140q0 73 54.5 124.5t129.5 51.5q45 0 91.5 -21.5t91.5 -61.5l70 -63l71 63q44 40 90.5 61.5t92.5 21.5q75 0 129.5 -51.5
t54.5 -124.5zM867 306q0 49 -36 81t-88 32q-43 0 -80 -22q-15 -9 -45 -31l-85 -64l79 -73q54 -50 129 -50q54 0 90 34t36 83v10zM454 302l-85 64q-39 28 -58 38q-31 15 -66 15q-53 0 -89 -32t-36 -81q-4 -52 32.5 -89.5t93.5 -37.5q75 0 129 50z" />
    <glyph glyph-name="plusminus" unicode="&#xb1;" horiz-adv-x="616" 
d="M565 366h-219v-219h-57v219h-218l1 62h217v218h58v-219h218v-61zM560 -2h-498v47h498v-47z" />
    <glyph glyph-name="lessequal" unicode="&#x2264;" horiz-adv-x="580" 
d="M540 119l-492 241v58l492 231v-62l-424 -202l424 -201v-65zM540 0h-492v58h492v-58z" />
    <glyph glyph-name="greaterequal" unicode="&#x2265;" horiz-adv-x="576" 
d="M533 360l-490 -241v65l423 201l-423 202v62l490 -231v-58zM533 0h-490v58h490v-58z" />
    <glyph glyph-name="yen" unicode="&#xa5;" horiz-adv-x="747" 
d="M718 872l-175 -335h113v-74h-155l-60 -114h210v-72h-249v-279h-87v281h-230v75h198l-50 113h-152v72h117l-169 334h95l242 -491l260 490h92z" />
    <glyph glyph-name="mu" unicode="&#xb5;" horiz-adv-x="768" 
d="M729 131l-9 -40q-10 -48 -57 -82q-43 -31 -86 -31q-8 0 -12 1q-43 6 -78 43t-35 85l-33 -34q-39 -39 -84 -64.5t-79 -25.5q-33 0 -73 18q-49 22 -75 57v-45q0 -40 23 -100t23 -110q0 -33 -18 -59t-47 -26q-27 0 -44 23t-17 53q0 46 17.5 95t20.5 77l2 36v643h109v-442
q0 -55 33 -96.5t84 -41.5q52 0 104 40q57 44 57 96v444h106v-500q0 -39 19 -72.5t50 -33.5q6 0 9 1q43 9 56 57l10 34h24z" />
    <glyph glyph-name="partialdiff" unicode="&#x2202;" horiz-adv-x="644" 
d="M584 467q0 -178 -75 -324q-84 -163 -212 -163q-13 0 -20 1q-105 10 -164 74.5t-59 160.5q0 105 68.5 183.5t169.5 78.5q44 0 76 -13t75 -43l36 -26l9 61q6 36 6 74q0 121 -50 204q-57 95 -156 95q-31 0 -59.5 -9.5l-56.5 -19.5l-22 -7l-45 56l51 15q33 9 56.5 13t55.5 4
q144 0 234 -131q82 -120 82 -284zM469 352l-32 31q-32 32 -78 43q-14 3 -28 3q-58 0 -105 -51q-42 -46 -61 -115q-11 -39 -11 -78q0 -61 26 -107t78 -62q14 -5 33 -5q63 0 108 84q34 64 53 165z" />
    <glyph glyph-name="summation" unicode="&#x3a3;" horiz-adv-x="926" 
d="M867 142q-12 -36 -20.5 -70.5t-14 -68t-9.5 -64.5t-4 -62l-85 17h-685l425 467l-417 520l77 -7h648l2 -191h-25q0 64 -45 104q-23 22 -47.5 27t-69.5 5h-350l337 -405l-360 -405h480q24 0 41.5 6.5t38.5 22.5q51 40 57 104h26z" />
    <glyph glyph-name="product" unicode="&#x220f;" horiz-adv-x="1046" 
d="M992 -110h-373v22l31 2q30 0 43.5 5t24 15.5t14 23.5t3.5 32v26v788h-436v-781q0 -36 5 -56t26 -36q14 -11 28 -13.5t41 -2.5h23v-25h-373v26h30q25 0 37.5 2.5t29.5 15.5t21 33.5t4 56.5v711q0 51 -38 85q-15 14 -27.5 20t-29.5 6l-21 1v25h937v-26l-26 -1
q-17 0 -28.5 -5.5t-27.5 -18.5q-23 -18 -31 -43t-8 -61v-703q0 -29 5 -47.5t20 -32.5t31 -19t37 -5l28 -1v-19z" />
    <glyph glyph-name="pi" unicode="&#x3c0;" horiz-adv-x="794" 
d="M740 210l-3 -29q-9 -76 -53 -127q-48 -55 -118 -55q-63 0 -92 63q-24 52 -24 138q0 30 3 57l31 285h-156l-53 -422q-6 -50 -27 -85q-26 -43 -62 -43q-10 0 -16 2q-22 7 -35 16q-16 12 -20 27t-4 24q0 25 20 48q61 69 63 75q10 22 15.5 35.5t7.5 30.5l30 287h-43
q-16 0 -30.5 -0.5t-31 -7t-34.5 -24.5q-24 -25 -34 -46l-21 9l8 18q33 74 39 84q24 40 65.5 60.5t85.5 20.5h481v-109h-175l-17 -318q0 -45 23 -78.5t63 -33.5q31 0 53 21.5t30 54.5l6 22h25z" />
    <glyph glyph-name="integral" unicode="&#x222b;" horiz-adv-x="415" 
d="M360 922q-2 -19 -16.5 -31.5t-34.5 -12.5q-11 0 -23 9q-18 14 -22 16q-3 2 -9 2q-11 0 -15 -15.5t-4 -43.5q0 -32 8 -117t8 -120v-369q0 -139 -18 -225q-30 -143 -105 -143q-11 0 -26 4t-29.5 19t-14.5 32q0 20 13 33.5t32 13.5q13 0 22 -9q24 -24 27 -25
q20 -5 27.5 24.5t7.5 82.5q0 32 -1.5 73t-2.5 66v513q0 154 31 220q27 58 78 58q28 0 49.5 -16t17.5 -39z" />
    <glyph glyph-name="ordfeminine" unicode="&#xaa;" horiz-adv-x="524" 
d="M474 467h-50v74q-34 -46 -69 -63.5t-89 -17.5q-87 0 -148.5 60.5t-61.5 152.5q0 90 63 149t157 59q45 0 81 -20.5t66 -61.5v74h51v-406zM475 360h-422v63h422v-63zM422 674q0 63 -43.5 108.5t-106.5 45.5q-66 0 -114.5 -47.5t-48.5 -113.5q0 -64 45.5 -109.5t110.5 -45.5
q68 0 112.5 47.5t44.5 114.5z" />
    <glyph glyph-name="ordmasculine" unicode="&#xba;" horiz-adv-x="523" 
d="M471 675q0 -88 -63.5 -149.5t-151.5 -61.5q-84 0 -143 62t-59 147q0 89 62.5 151.5t151.5 62.5q85 0 144 -63t59 -149zM475 360h-422v63h422v-63zM417 678q0 63 -45 109t-108 46q-65 0 -110.5 -45.5t-45.5 -110.5q0 -64 43.5 -113.5t104.5 -49.5q67 0 114 48t47 116z" />
    <glyph glyph-name="Omega" unicode="&#x3a9;" horiz-adv-x="947" 
d="M895 -2h-351l17 174q84 38 125 110t41 171q0 122 -46 183q-59 78 -203 78q-134 0 -198 -77q-56 -67 -56 -184q0 -100 40 -171t126 -110l17 -174h-351v183h23q0 -12 2 -21.5t9 -19.5q20 -30 62 -30h192v35q-114 20 -185 106t-71 204q0 137 111 218q106 77 278 77
q178 0 282 -78t104 -217q0 -118 -70.5 -204t-185.5 -106v-35h192q21 0 36 6.5t26.5 23.5t11.5 41h22v-183z" />
    <glyph glyph-name="ae" unicode="&#xe6;" horiz-adv-x="1374" 
d="M1348 283h-581q10 -97 81.5 -160.5t171.5 -63.5q75 0 131 36t89 106h91q-36 -105 -122 -167t-191 -62q-74 0 -142 32.5t-117 90.5v-95h-80v115q-55 -73 -112 -101.5t-141 -28.5q-141 0 -240 98t-99 245q0 145 101.5 239.5t252.5 94.5q73 0 131 -33t106 -98v116h81v-115
q49 58 119.5 89.5t152.5 31.5q128 0 224 -102q93 -99 93 -222v-46zM1262 362q-17 92 -84 148.5t-160 56.5q-95 0 -164.5 -56t-86.5 -149h495zM676 330q0 101 -70.5 174.5t-170.5 73.5q-107 0 -185 -76t-78 -183q0 -103 73.5 -176.5t177.5 -73.5q110 0 181.5 76.5t71.5 184.5
z" />
    <glyph glyph-name="oslash" unicode="&#xf8;" horiz-adv-x="769" 
d="M720 325q0 -139 -101 -239t-242 -100q-71 0 -140 36l-41 -59h-122l82 117q-48 48 -74.5 110.5t-26.5 132.5q0 141 100.5 240.5t241.5 99.5q38 0 72 -9.5t69 -27.5l37 52h119l-76 -110q49 -47 75.5 -109t26.5 -134zM489 555q-46 23 -99 23q-103 0 -176 -73t-73 -176
q0 -102 65 -177zM633 330q0 46 -17 89t-48 78l-282 -405q21 -10 45 -16.5t46 -6.5q108 0 182 77t74 184z" />
    <glyph glyph-name="questiondown" unicode="&#xbf;" horiz-adv-x="688" 
d="M382 541h-91v107h91v-107zM629 43q0 -119 -85 -202t-204 -83q-115 0 -198 80t-83 196q0 98 79 178l63 65q23 23 38.5 43t27 45.5t17 45.5t5.5 44h94l-4 -38q0 -35 -11 -60q-2 -3 -22 -39.5t-47 -65.5l-60 -60l-40 -41q-48 -51 -48 -120q0 -77 56 -130t134 -53
q81 0 139.5 58.5t58.5 139.5v17h90v-20z" />
    <glyph glyph-name="exclamdown" unicode="&#xa1;" horiz-adv-x="193" 
d="M146 538h-88v110h88v-110zM146 -229h-88v685h88v-685z" />
    <glyph glyph-name="logicalnot" unicode="&#xac;" horiz-adv-x="965" 
d="M913 0h-71v300h-787v66h858v-366z" />
    <glyph glyph-name="radical" unicode="&#x221a;" horiz-adv-x="653" 
d="M606 957l-165 -1014l-270 536l-103 -53l-16 36l158 75l217 -427l141 853z" />
    <glyph glyph-name="florin" unicode="&#x192;" horiz-adv-x="635" 
d="M577 915q-16 -44 -62 -44q-10 0 -20 9q-15 14 -19 16q-6 3 -11 3q-26 0 -40 -132q-9 -86 -18 -120l-6 -24h119l-7 -49h-125l-71 -358q-16 -83 -35 -143q-30 -95 -68 -153q-48 -72 -103 -72h-9q-8 1 -20 4.5t-22 15.5t-10 28q0 3 2 11q15 44 55 44q16 0 25 -16t16 -18
q38 -11 65 120q16 89 23 125l83 413h-130l3 49h145l7 32q26 129 64 208q51 106 115 106q21 0 38.5 -13.5t17.5 -31.5q0 -4 -2 -10z" />
    <glyph glyph-name="approxequal" unicode="&#x2248;" horiz-adv-x="807" 
d="M756 459l-26 -29q-34 -39 -72 -57.5t-88 -18.5q-33 0 -66 10t-65 21l-107 29l-44 12.5t-42 6.5q-12 0 -34 -4.5t-42.5 -16.5t-43.5 -36l-22 -23l-55 36l18 19q63 68 150 81q21 3 40 3q26 0 44.5 -4t57.5 -16l94 -28l56 -17.5t58 -8.5q69 0 115 49l23 25zM756 252l-26 -29
q-34 -39 -72 -57.5t-88 -18.5q-33 0 -66 10t-65 21l-107 29l-44 12.5t-42 6.5q-12 0 -34 -4.5t-42.5 -16.5t-43.5 -36l-22 -23l-55 36l18 19q63 68 150 81q21 3 40 3q26 0 44.5 -4t57.5 -16l94 -28l56 -17.5t58 -8.5q69 0 115 49l23 25z" />
    <glyph glyph-name="Delta" unicode="&#x2206;" horiz-adv-x="895" 
d="M840 -1h-780l417 875zM686 57l-258 610l-286 -610h544z" />
    <glyph glyph-name="guillemotleft" unicode="&#xab;" horiz-adv-x="673" 
d="M622 464l-178 -127l174 -123v-129l-246 192v123l250 185v-121zM308 464l-177 -127l173 -123v-129l-246 192v123l250 185v-121z" />
    <glyph glyph-name="guillemotright" unicode="&#xbb;" horiz-adv-x="673" 
d="M624 277l-247 -192v129l174 123l-177 127v121l250 -185v-123zM310 277l-246 -192v129l173 123l-177 127v121l250 -185v-123z" />
    <glyph glyph-name="ellipsis" unicode="&#x2026;" horiz-adv-x="550" 
d="M492 -1h-83v149h83v-149zM326 -1h-88v149h88v-149zM145 -1h-87v149h87v-149z" />
    <glyph glyph-name="nonbreakingspace" unicode="&#xa0;" horiz-adv-x="635" 
 />
    <glyph glyph-name="Agrave" unicode="&#xc0;" horiz-adv-x="912" 
d="M881 0h-97l-123 295h-405l-123 -295h-111l390 874h98zM630 374l-167 399l-170 -399h337zM602 977l-40 -68l-225 135l40 65z" />
    <glyph glyph-name="Atilde" unicode="&#xc3;" horiz-adv-x="912" 
d="M881 0h-97l-123 295h-405l-123 -295h-111l390 874h98zM630 374l-167 399l-170 -399h337zM718 1033l-36 -53q-10 -14 -33 -28q-29 -18 -54 -22q-4 -1 -13 -1q-16 0 -36.5 5.5t-44.5 15.5l-72 30q-19 9 -32.5 13t-29.5 2q-22 -4 -38.5 -16t-29.5 -33l-22 -36l-40 43l16 27
q21 37 40 55q27 25 64 31q16 2 22 2q27 0 62 -16l96 -40q10 -5 21.5 -8.5t28.5 -1.5q20 0 39.5 13t27.5 27l22 38z" />
    <glyph glyph-name="Otilde" unicode="&#xd5;" horiz-adv-x="1023" 
d="M974 444q0 -188 -135 -324t-324 -136q-187 0 -324 130t-137 315q0 189 133 324t322 135t327 -129t138 -315zM889 439q0 151 -111.5 257.5t-265.5 106.5q-151 0 -260 -108t-109 -259q0 -152 109 -260t261 -108q155 0 265.5 108.5t110.5 262.5zM768 1033l-36 -53
q-10 -14 -33 -28q-29 -18 -54 -22q-4 -1 -13 -1q-16 0 -36.5 5.5t-44.5 15.5l-72 30q-19 9 -32.5 13t-29.5 2q-22 -4 -38.5 -16t-29.5 -33l-22 -36l-40 43l16 27q21 37 40 55q27 25 64 31q16 2 22 2q27 0 62 -16l96 -40q10 -5 21.5 -8.5t28.5 -1.5q20 0 39.5 13t27.5 27
l22 38z" />
    <glyph glyph-name="OE" unicode="&#x152;" horiz-adv-x="1422" 
d="M974 444q0 -188 -135 -324t-324 -136q-187 0 -324 130t-137 315q0 189 133 324t322 135t327 -129t138 -315zM889 439q0 151 -111.5 257.5t-265.5 106.5q-151 0 -260 -108t-109 -259q0 -152 109 -260t261 -108q155 0 265.5 108.5t110.5 262.5zM1370 803h-393v-307h380v-82
h-380v-321h392v-82h-477v874h478v-82z" />
    <glyph glyph-name="oe" unicode="&#x153;" horiz-adv-x="1366" 
d="M1333 294h-581q10 -97 81.5 -160.5t171.5 -63.5q75 0 131 36t89 106h91q-36 -105 -122 -167t-191 -62q-91 0 -171.5 48.5t-125.5 129.5q-45 -80 -125 -127.5t-175 -47.5q-134 0 -228 100t-94 237q0 141 100.5 240.5t241.5 99.5q90 0 166 -49q72 -46 115 -125
q45 81 127 128t182 47q128 0 224 -102q93 -99 93 -222v-46zM1247 373q-17 90 -84 144t-160 54q-95 0 -164.5 -53.5t-86.5 -144.5h495zM662 330q0 102 -71 175t-172 73q-103 0 -176 -73t-73 -176q0 -104 69 -182t167 -78q108 0 182 77t74 184z" />
    <glyph glyph-name="endash" unicode="&#x2013;" horiz-adv-x="537" 
d="M494 346h-441v83h441v-83z" />
    <glyph glyph-name="emdash" unicode="&#x2014;" horiz-adv-x="998" 
d="M944 346h-888v83h888v-83z" />
    <glyph glyph-name="quotedblleft" unicode="&#x201c;" horiz-adv-x="508" 
d="M461 623h-97l-114 252h95zM266 623h-97l-114 252h96z" />
    <glyph glyph-name="quotedblright" unicode="&#x201d;" horiz-adv-x="479" 
d="M460 875l-114 -252h-97l115 252h96zM265 875l-114 -252h-97l115 252h96z" />
    <glyph glyph-name="quoteleft" unicode="&#x2018;" horiz-adv-x="308" 
d="M256 645h-89l-103 230h87z" />
    <glyph glyph-name="quoteright" unicode="&#x2019;" horiz-adv-x="305" 
d="M265 875l-114 -252h-97l115 252h96z" />
    <glyph glyph-name="divide" unicode="&#xf7;" horiz-adv-x="736" 
d="M427 488q0 -27 -18 -47t-45 -20q-28 0 -47 20t-19 49q0 26 18.5 44.5t44.5 18.5t46 -19t20 -46zM676 292h-618v69h618v-69zM427 164q0 -27 -18 -47t-45 -20q-28 0 -47 20t-19 49q0 26 18.5 44.5t44.5 18.5t46 -19t20 -46z" />
    <glyph glyph-name="lozenge" unicode="&#x25ca;" horiz-adv-x="644" 
d="M590 439l-227 -441h-75l-231 448l231 425h75zM522 439l-197 367l-197 -363l199 -389z" />
    <glyph glyph-name="ydieresis" unicode="&#xff;" horiz-adv-x="715" 
d="M645 647l-367 -872h-93l98 246l-248 626h95l205 -513l218 513h92zM485 762h-83v147h83v-147zM312 762h-82v147h82v-147z" />
    <glyph glyph-name="Ydieresis" unicode="&#x178;" horiz-adv-x="785" 
d="M743 874l-299 -580v-294h-89v295l-294 579h91l247 -491l248 491h96zM536 912h-83v147h83v-147zM363 912h-82v147h82v-147z" />
    <glyph glyph-name="periodcentered" unicode="&#xb7;" horiz-adv-x="200" 
d="M145 347h-87v150h87v-150z" />
    <glyph glyph-name="periodcentered" unicode="&#x2219;" horiz-adv-x="200" 
d="M145 347h-87v150h87v-150z" />
    <glyph glyph-name="quotesinglbase" unicode="&#x201a;" horiz-adv-x="305" 
d="M265 40l-114 -252h-97l115 252h96z" />
    <glyph glyph-name="quotedblbase" unicode="&#x201e;" horiz-adv-x="479" 
d="M460 40l-114 -252h-97l115 252h96zM265 40l-114 -252h-97l115 252h96z" />
    <glyph glyph-name="Acircumflex" unicode="&#xc2;" horiz-adv-x="920" 
d="M881 0h-97l-123 295h-405l-123 -295h-111l390 874h98zM630 374l-167 399l-170 -399h337zM673 912h-105l-101 89l-105 -88h-106l173 152h74z" />
    <glyph glyph-name="Ecircumflex" unicode="&#xca;" horiz-adv-x="590" 
d="M544 792h-393v-307h380v-82h-380v-321h392v-82h-477v874h478v-82zM513 912h-105l-101 89l-105 -88h-106l173 152h74z" />
    <glyph glyph-name="Aacute" unicode="&#xc1;" horiz-adv-x="915" 
d="M881 0h-97l-123 295h-405l-123 -295h-111l390 874h98zM630 374l-167 399l-170 -399h337zM593 1047l-225 -135l-40 68l225 132z" />
    <glyph glyph-name="Edieresis" unicode="&#xcb;" horiz-adv-x="605" 
d="M544 792h-393v-307h380v-82h-380v-321h392v-82h-477v874h478v-82zM446 912h-83v147h83v-147zM273 912h-82v147h82v-147z" />
    <glyph glyph-name="Egrave" unicode="&#xc8;" horiz-adv-x="590" 
d="M544 792h-393v-307h380v-82h-380v-321h392v-82h-477v874h478v-82zM444 980l-40 -68l-225 135l40 65z" />
    <glyph glyph-name="Iacute" unicode="&#xcd;" horiz-adv-x="300" 
d="M194 0h-88v874h88v-874zM288 1047l-225 -135l-40 68l225 132z" />
    <glyph glyph-name="Icircumflex" unicode="&#xce;" horiz-adv-x="290" 
d="M194 0h-88v874h88v-874zM358 912h-105l-101 89l-105 -88h-106l173 152h74z" />
    <glyph glyph-name="Idieresis" unicode="&#xcf;" horiz-adv-x="300" 
d="M194 0h-88v874h88v-874zM281 917h-83v147h83v-147zM108 917h-82v147h82v-147z" />
    <glyph glyph-name="Igrave" unicode="&#xcc;" horiz-adv-x="305" 
d="M194 0h-88v874h88v-874zM279 980l-40 -68l-225 135l40 65z" />
    <glyph glyph-name="Oacute" unicode="&#xd3;" horiz-adv-x="1030" 
d="M974 444q0 -188 -135 -324t-324 -136q-187 0 -324 130t-137 315q0 189 133 324t322 135t327 -129t138 -315zM889 439q0 151 -111.5 257.5t-265.5 106.5q-151 0 -260 -108t-109 -259q0 -152 109 -260t261 -108q155 0 265.5 108.5t110.5 262.5zM653 1042l-225 -135l-40 68
l225 132z" />
    <glyph glyph-name="Ocircumflex" unicode="&#xd4;" horiz-adv-x="1035" 
d="M974 444q0 -188 -135 -324t-324 -136q-187 0 -324 130t-137 315q0 189 133 324t322 135t327 -129t138 -315zM889 439q0 151 -111.5 257.5t-265.5 106.5q-151 0 -260 -108t-109 -259q0 -152 109 -260t261 -108q155 0 265.5 108.5t110.5 262.5zM728 912h-105l-101 89
l-105 -88h-106l173 152h74z" />
    <glyph glyph-name="Ograve" unicode="&#xd2;" horiz-adv-x="1030" 
d="M974 444q0 -188 -135 -324t-324 -136q-187 0 -324 130t-137 315q0 189 133 324t322 135t327 -129t138 -315zM889 439q0 151 -111.5 257.5t-265.5 106.5q-151 0 -260 -108t-109 -259q0 -152 109 -260t261 -108q155 0 265.5 108.5t110.5 262.5zM659 980l-40 -68l-225 135
l40 65z" />
    <glyph glyph-name="Uacute" unicode="&#xda;" horiz-adv-x="725" 
d="M650 284q0 -129 -87.5 -214.5t-213.5 -85.5q-123 0 -207 87t-84 216v587h86v-571q0 -98 59 -166t150 -68q88 0 148.5 62.5t60.5 154.5v588h88v-590zM493 1047l-225 -135l-40 68l225 132z" />
    <glyph glyph-name="Ucircumflex" unicode="&#xdb;" horiz-adv-x="715" 
d="M650 284q0 -129 -87.5 -214.5t-213.5 -85.5q-123 0 -207 87t-84 216v587h86v-571q0 -98 59 -166t150 -68q88 0 148.5 62.5t60.5 154.5v588h88v-590zM563 912h-105l-101 89l-105 -88h-106l173 152h74z" />
    <glyph glyph-name="Ugrave" unicode="&#xd9;" horiz-adv-x="720" 
d="M650 284q0 -129 -87.5 -214.5t-213.5 -85.5q-123 0 -207 87t-84 216v587h86v-571q0 -98 59 -166t150 -68q88 0 148.5 62.5t60.5 154.5v588h88v-590zM479 980l-40 -68l-225 135l40 65z" />
    </font>
</defs>
</svg>
